<svg xmlns="http://www.w3.org/2000/svg" viewBox="0 0 512 512" role="img" aria-labelledby="title desc">
  <title id="title">Family Budget Logo</title>
  <desc id="desc">A family budget app icon with a house, shared wallet, and balanced cost bars.</desc>
  <defs>
    <linearGradient id="bg" x1="64" y1="50" x2="448" y2="459" gradientUnits="userSpaceOnUse">
      <stop offset="0" stop-color="#eff6ff"/>
      <stop offset="0.48" stop-color="#60a5fa"/>
      <stop offset="1" stop-color="#1d4ed8"/>
    </linearGradient>
    <linearGradient id="wallet" x1="132" y1="199" x2="372" y2="379" gradientUnits="userSpaceOnUse">
      <stop offset="0" stop-color="#fefce8"/>
      <stop offset="1" stop-color="#facc15"/>
    </linearGradient>
    <filter id="shadow" x="-20%" y="-20%" width="140%" height="140%">
      <feDropShadow dx="0" dy="18" stdDeviation="18" flood-color="#1e3a8a" flood-opacity="0.28"/>
    </filter>
  </defs>
  <rect width="512" height="512" fill="url(#bg)"/>
  <path d="M134 237l122-96 122 96" fill="none" stroke="#eff6ff" stroke-width="30" stroke-linecap="round" stroke-linejoin="round"/>
  <path d="M170 238v116c0 18 15 33 33 33h106c18 0 33-15 33-33V238" fill="#dbeafe" opacity="0.95"/>
  <g filter="url(#shadow)">
    <rect x="122" y="245" width="268" height="129" rx="36" fill="url(#wallet)"/>
    <path d="M122 285h268" stroke="#a16207" stroke-width="16" stroke-linecap="round" opacity="0.3"/>
    <rect x="293" y="292" width="75" height="48" rx="24" fill="#fef9c3"/>
    <circle cx="331" cy="316" r="10" fill="#f59e0b"/>
  </g>
  <rect x="169" y="315" width="33" height="47" rx="12" fill="#2563eb"/>
  <rect x="219" y="292" width="33" height="70" rx="12" fill="#16a34a"/>
  <rect x="269" y="329" width="33" height="33" rx="12" fill="#dc2626"/>
  <path d="M165 403h182" stroke="#eff6ff" stroke-width="22" stroke-linecap="round"/>
</svg>
